<svg width="96" height="96" viewBox="0 0 96 96" fill="none" xmlns="http://www.w3.org/2000/svg">
<rect width="96" height="96" fill="white"/>
<path d="M67.6488 56.908C66.9195 60.9816 64.9597 64.7339 62.0331 67.6599C59.1066 70.5858 55.3538 72.5448 51.2801 73.2733C51.1254 73.298 50.9691 73.311 50.8125 73.3119C50.107 73.3117 49.4274 73.0464 48.9083 72.5686C48.3893 72.0908 48.0688 71.4353 48.0104 70.7323C47.952 70.0292 48.1599 69.3299 48.593 68.7729C49.0261 68.216 49.6526 67.8422 50.3484 67.7256C56.1738 66.7447 61.1168 61.8018 62.1047 55.9658C62.2296 55.2302 62.6417 54.5743 63.2502 54.1424C63.8588 53.7106 64.6139 53.5382 65.3496 53.6631C66.0853 53.788 66.7412 54.2001 67.173 54.8086C67.6049 55.4172 67.7773 56.1724 67.6523 56.908H67.6488ZM78.9375 53.6244C78.9375 61.8296 75.678 69.6986 69.8761 75.5005C64.0742 81.3024 56.2051 84.5619 48 84.5619C39.7949 84.5619 31.9258 81.3024 26.1239 75.5005C20.322 69.6986 17.0625 61.8296 17.0625 53.6244C17.0625 43.8088 20.9297 33.7717 28.5445 23.7944C28.7856 23.4784 29.0908 23.2172 29.4402 23.0278C29.7895 22.8384 30.175 22.7252 30.5713 22.6956C30.9676 22.6661 31.3656 22.7208 31.7392 22.8563C32.1128 22.9917 32.4534 23.2048 32.7387 23.4815L41.2184 31.7115L48.9527 10.4736C49.1073 10.0501 49.3614 9.66984 49.6936 9.36503C50.0259 9.06022 50.4265 8.83975 50.8618 8.72223C51.2971 8.6047 51.7543 8.59355 52.1948 8.68972C52.6353 8.78589 53.0463 8.98657 53.393 9.27482C61.0816 15.6557 78.9375 32.724 78.9375 53.6244ZM73.3125 53.6244C73.3125 37.4209 60.7301 23.4182 52.848 16.2428L45.0187 37.7127C44.8581 38.1537 44.5896 38.5474 44.2378 38.8581C43.8859 39.1687 43.462 39.3864 43.0045 39.4912C42.547 39.596 42.0706 39.5847 41.6186 39.4583C41.1666 39.3319 40.7535 39.0944 40.4168 38.7674L31.1461 29.7744C25.5316 37.8779 22.6875 45.8901 22.6875 53.6244C22.6875 60.3377 25.3543 66.7761 30.1014 71.5231C34.8484 76.2701 41.2867 78.9369 48 78.9369C54.7133 78.9369 61.1516 76.2701 65.8986 71.5231C70.6457 66.7761 73.3125 60.3377 73.3125 53.6244Z" fill="black"/>
</svg>
